<svg width="31" height="24" viewBox="0 0 31 24" fill="none" xmlns="http://www.w3.org/2000/svg">
<path d="M25.9791 2.75461C24.0098 1.83894 21.9264 1.18832 19.7839 0.819946C19.517 1.2994 19.2052 1.94424 18.9902 2.45726C16.6802 2.11209 14.3916 2.11209 12.124 2.45726C11.9091 1.94435 11.5903 1.2994 11.3209 0.819946C9.17637 1.1885 7.09114 1.84077 5.12081 2.75939C1.20003 8.64712 0.137134 14.3884 0.668514 20.0484C3.26904 21.9781 5.78923 23.1505 8.26693 23.9176C8.8827 23.0761 9.42702 22.1853 9.89429 21.2542C9.00469 20.9177 8.14708 20.5029 7.33165 20.0148C7.54625 19.8568 7.75577 19.6921 7.95994 19.521C12.9011 21.8175 18.2698 21.8175 23.152 19.521C23.3572 19.6909 23.5666 19.8556 23.7803 20.0148C22.9635 20.5042 22.1043 20.9198 21.2129 21.2567C21.6828 22.1915 22.2262 23.0832 22.8403 23.9199C25.3203 23.1528 27.8428 21.9806 30.4434 20.0484C31.0669 13.4871 29.3782 7.79846 25.9791 2.75461ZM10.5675 16.5676C9.08418 16.5676 7.86773 15.1915 7.86773 13.5159C7.86773 11.8402 9.05826 10.4619 10.5675 10.4619C12.0769 10.4619 13.2931 11.8378 13.2673 13.5159C13.2696 15.1915 12.0769 16.5676 10.5675 16.5676ZM20.5444 16.5676C19.0611 16.5676 17.8447 15.1915 17.8447 13.5159C17.8447 11.8402 19.0352 10.4619 20.5444 10.4619C22.0537 10.4619 23.2701 11.8378 23.2441 13.5159C23.2441 15.1915 22.0537 16.5676 20.5444 16.5676Z" fill="#DDDDDD"/>
</svg>
