<svg width="24" height="17" viewBox="0 0 24 17" fill="none" xmlns="http://www.w3.org/2000/svg">
<path d="M10.2156 9.06538C10.5916 9.34424 11.0626 9.49662 11.5486 9.49662C12.0346 9.49662 12.5056 9.34424 12.8816 9.06538L22.105 2.20182C21.715 1.77306 21.2255 1.42741 20.6713 1.18947C20.1171 0.951523 19.5119 0.827129 18.8986 0.825134H4.19858C3.58531 0.827129 2.98005 0.951523 2.42586 1.18947C1.87168 1.42741 1.38218 1.77306 0.992188 2.20182L10.2156 9.06538Z" fill="#DDDDDD"/>
<path d="M14.216 10.5356C13.4637 11.0928 12.5218 11.3972 11.55 11.3972C10.5782 11.3972 9.63635 11.0928 8.88399 10.5356L0.072807 3.9787C0.0277014 4.19336 0.00334022 4.41118 0 4.62968V13.1904C0.00118681 14.1991 0.444067 15.1663 1.23146 15.8796C2.01886 16.5929 3.08646 16.9941 4.2 16.9952H18.9C20.0135 16.9941 21.0811 16.5929 21.8685 15.8796C22.6559 15.1663 23.0988 14.1991 23.1 13.1904V4.62968C23.0967 4.41118 23.0723 4.19336 23.0272 3.9787L14.216 10.5356Z" fill="#DDDDDD"/>
</svg>
