<svg width="25" height="24" viewBox="0 0 25 24" fill="none" xmlns="http://www.w3.org/2000/svg">
<path d="M21.5094 0.819946C22.1901 0.819946 22.8429 1.09036 23.3243 1.57171C23.8057 2.05305 24.0761 2.70589 24.0761 3.38661V21.3533C24.0761 22.034 23.8057 22.6868 23.3243 23.1682C22.8429 23.6495 22.1901 23.9199 21.5094 23.9199H3.54274C2.86202 23.9199 2.20918 23.6495 1.72784 23.1682C1.24649 22.6868 0.976074 22.034 0.976074 21.3533V3.38661C0.976074 2.70589 1.24649 2.05305 1.72784 1.57171C2.20918 1.09036 2.86202 0.819946 3.54274 0.819946H21.5094ZM20.8677 20.7116V13.9099C20.8677 12.8004 20.4269 11.7362 19.6424 10.9516C18.8578 10.1671 17.7936 9.72628 16.6841 9.72628C15.5932 9.72628 14.3227 10.3936 13.7067 11.3946V9.97011H10.1262V20.7116H13.7067V14.3848C13.7067 13.3966 14.5024 12.5881 15.4906 12.5881C15.9671 12.5881 16.4241 12.7774 16.7609 13.1144C17.0979 13.4513 17.2872 13.9083 17.2872 14.3848V20.7116H20.8677ZM5.95541 7.95528C6.52721 7.95528 7.0756 7.72813 7.47993 7.3238C7.88426 6.91948 8.11141 6.37108 8.11141 5.79928C8.11141 4.60578 7.14891 3.63045 5.95541 3.63045C5.38019 3.63045 4.82855 3.85894 4.42181 4.26568C4.01507 4.67242 3.78657 5.22406 3.78657 5.79928C3.78657 6.99278 4.76191 7.95528 5.95541 7.95528ZM7.73924 20.7116V9.97011H4.18441V20.7116H7.73924Z" fill="#DDDDDD"/>
</svg>
