<svg width="17" height="22" viewBox="0 0 17 22" fill="none" xmlns="http://www.w3.org/2000/svg">
<path d="M15.2635 4.9192C14.6618 3.72372 13.7716 2.69985 12.6745 1.94172C11.5775 1.18359 10.309 0.715521 8.9855 0.580555C8.38681 0.520023 7.78361 0.520023 7.18491 0.580555C5.86149 0.715609 4.59296 1.18366 3.4959 1.9417C2.39884 2.69974 1.50842 3.72346 0.906472 4.9188C0.149126 6.44398 -0.143406 8.16089 0.0657225 9.85328C0.274851 11.5457 0.976286 13.1379 2.08168 14.4293L7.47201 21.0333C7.54645 21.1246 7.64003 21.1981 7.74602 21.2485C7.85201 21.299 7.96778 21.3252 8.08501 21.3252C8.20224 21.3252 8.318 21.299 8.424 21.2485C8.52999 21.1981 8.62357 21.1246 8.69801 21.0333L14.0883 14.4293C15.1937 13.1379 15.8951 11.5458 16.1043 9.85348C16.3134 8.16116 16.0209 6.44431 15.2635 4.9192ZM8.08501 11.7293C7.45723 11.7293 6.84355 11.5418 6.32158 11.1903C5.7996 10.8388 5.39277 10.3393 5.15253 9.75484C4.91229 9.17039 4.84943 8.52727 4.9719 7.90681C5.09438 7.28636 5.39668 6.71644 5.84058 6.26912C6.28449 5.82179 6.85006 5.51716 7.46577 5.39375C8.08149 5.27033 8.71969 5.33367 9.29968 5.57576C9.87967 5.81785 10.3754 6.22781 10.7242 6.75381C11.0729 7.2798 11.2591 7.89821 11.2591 8.53082C11.2581 9.37881 10.9234 10.1918 10.3283 10.7914C9.7333 11.391 8.92653 11.7283 8.08501 11.7293Z" fill="#DDDDDD"/>
</svg>
