<svg width="217" height="44" viewBox="0 0 217 44" fill="none" xmlns="http://www.w3.org/2000/svg">
<path d="M79.8068 21.7754C79.8068 24.9554 78.6506 27.6054 76.3382 29.7254L78.8201 32.2754H75.9794L74.6936 30.9554C73.039 31.9754 71.2648 32.4854 69.371 32.4854C66.6798 32.4854 64.2577 31.4654 62.1048 29.4254C59.9718 27.3654 58.9053 24.8154 58.9053 21.7754C58.9053 18.7354 59.9718 16.1954 62.1048 14.1554C64.2577 12.0954 66.6798 11.0654 69.371 11.0654C72.122 11.0654 74.5441 12.0854 76.6372 14.1254C78.7503 16.1654 79.8068 18.7154 79.8068 21.7754ZM69.371 30.1154C70.7066 30.1154 71.9127 29.8154 72.9892 29.2154L68.5636 24.6554H71.4043L74.6637 28.0154C76.3382 26.3954 77.1754 24.3154 77.1754 21.7754C77.1754 19.3354 76.408 17.3354 74.873 15.7754C73.358 14.1954 71.524 13.4054 69.371 13.4054C67.3377 13.4054 65.5236 14.1954 63.9288 15.7754C62.354 17.3554 61.5666 19.3554 61.5666 21.7754C61.5666 24.1754 62.354 26.1654 63.9288 27.7454C65.5236 29.3254 67.3377 30.1154 69.371 30.1154Z" fill="white"/>
<path d="M95.7993 16.6754H98.1915V32.2754H95.7993V28.4954C95.6 29.3554 95.0019 30.2354 94.0052 31.1354C93.0084 32.0354 91.7526 32.4854 90.2375 32.4854C88.563 32.4854 87.1775 31.9454 86.0811 30.8654C84.9847 29.7854 84.4365 28.1154 84.4365 25.8554V16.6754H86.8287V25.7954C86.8287 27.3754 87.1676 28.5354 87.8454 29.2754C88.5231 30.0154 89.4401 30.3854 90.5963 30.3854C91.8921 30.3854 93.0184 29.8854 93.9753 28.8854C94.9321 27.8654 95.5402 26.7654 95.7993 25.5854V16.6754Z" fill="white"/>
<path d="M105.792 11.2754V13.5254H103.37V11.2754H105.792ZM105.792 16.6754V32.2754H103.37V16.6754H105.792Z" fill="white"/>
<path d="M113.621 11.2754V32.2754H111.199V11.2754H113.621Z" fill="white"/>
<path d="M121.306 11.2754V32.2754H118.884V11.2754H121.306Z" fill="white"/>
<path d="M142.628 32.2754L140.026 26.4254H130.697L128.095 32.2754H125.434L135.092 11.2754H135.631L145.259 32.2754H142.628ZM131.624 24.3254H139.099L135.361 15.8654L131.624 24.3254Z" fill="white"/>
<path d="M160.363 16.6754H162.755V32.2754H160.363V28.4954C160.164 29.3554 159.566 30.2354 158.569 31.1354C157.572 32.0354 156.317 32.4854 154.802 32.4854C153.127 32.4854 151.742 31.9454 150.645 30.8654C149.549 29.7854 149.001 28.1154 149.001 25.8554V16.6754H151.393V25.7954C151.393 27.3754 151.732 28.5354 152.409 29.2754C153.087 30.0154 154.004 30.3854 155.16 30.3854C156.456 30.3854 157.582 29.8854 158.539 28.8854C159.496 27.8654 160.104 26.7654 160.363 25.5854V16.6754Z" fill="white"/>
<path d="M179.955 11.2754H182.347V32.2754H179.955V29.2154C179.536 30.1754 178.839 30.9654 177.862 31.5854C176.885 32.1854 175.799 32.4854 174.603 32.4854C172.729 32.4854 171.034 31.7754 169.519 30.3554C168.004 28.9354 167.247 26.9754 167.247 24.4754C167.247 23.1954 167.476 22.0354 167.934 20.9954C168.393 19.9354 168.981 19.0954 169.699 18.4754C170.416 17.8354 171.194 17.3454 172.031 17.0054C172.888 16.6654 173.745 16.4954 174.603 16.4954C175.819 16.4954 176.915 16.7854 177.892 17.3654C178.869 17.9454 179.556 18.7054 179.955 19.6454V11.2754ZM171.253 28.8254C172.33 29.8654 173.546 30.3854 174.902 30.3854C176.257 30.3854 177.453 29.8854 178.49 28.8854C179.526 27.8654 180.045 26.3954 180.045 24.4754C180.045 22.5554 179.526 21.0954 178.49 20.0954C177.453 19.0954 176.257 18.5954 174.902 18.5954C173.546 18.5954 172.33 19.1154 171.253 20.1554C170.177 21.1954 169.639 22.6354 169.639 24.4754C169.639 26.3154 170.177 27.7654 171.253 28.8254Z" fill="white"/>
<path d="M189.781 11.2754V13.5254H187.359V11.2754H189.781ZM189.781 16.6754V32.2754H187.359V16.6754H189.781Z" fill="white"/>
<path d="M199.822 30.3554C200.5 30.3554 201.188 30.1954 201.885 29.8754V31.9154C201.168 32.2754 200.281 32.4554 199.224 32.4554C197.211 32.4554 196.204 31.3454 196.204 29.1254V18.6554H194.29V16.6754H196.204V13.9754H198.596V16.6754H201.855V18.6554H198.596V28.9154C198.596 29.8754 199.005 30.3554 199.822 30.3554Z" fill="white"/>
<path d="M214.157 20.3954C213.459 19.1554 212.422 18.5354 211.047 18.5354C210.289 18.5354 209.671 18.7354 209.193 19.1354C208.734 19.5154 208.505 19.9854 208.505 20.5454C208.505 21.0654 208.665 21.5054 208.984 21.8654C209.323 22.2254 209.901 22.5454 210.718 22.8254L212.303 23.3954C213.838 23.9354 214.984 24.5254 215.742 25.1654C216.499 25.8054 216.878 26.7454 216.878 27.9854C216.878 29.3454 216.29 30.4354 215.114 31.2554C213.937 32.0754 212.622 32.4854 211.166 32.4854C209.791 32.4854 208.535 32.1154 207.399 31.3754C206.263 30.6354 205.525 29.6454 205.186 28.4054L207.279 27.8354C207.538 28.6154 208.037 29.2454 208.774 29.7254C209.512 30.1854 210.309 30.4154 211.166 30.4154C212.004 30.4154 212.751 30.1954 213.409 29.7554C214.067 29.2954 214.396 28.7054 214.396 27.9854C214.396 27.3654 214.187 26.8554 213.768 26.4554C213.349 26.0554 212.711 25.7054 211.854 25.4054L210.06 24.7754C208.625 24.2554 207.598 23.6754 206.98 23.0354C206.362 22.3954 206.053 21.5754 206.053 20.5754C206.053 19.4154 206.532 18.4454 207.489 17.6654C208.465 16.8854 209.641 16.4954 211.017 16.4954C213.509 16.4954 215.283 17.6054 216.34 19.8254L214.157 20.3954Z" fill="white"/>
<path d="M44.6637 24.2525L25.3532 43.1958L23.6455 40.5183L41.905 22.0436V21.9766L27.7835 7.38426L28.8344 4.37207L45.5175 21.8428L44.6637 24.2525Z" fill="white"/>
<path fill-rule="evenodd" clip-rule="evenodd" d="M14.501 30.344C14.7049 29.6613 14.9768 29.0469 15.2487 28.4324C16.4042 26.0429 17.9675 23.9265 19.6668 21.9467C21.9099 19.4207 24.4249 17.1677 27.2797 15.3244C28.5032 14.5052 29.7946 13.8224 31.222 13.3446C31.29 13.2763 31.4259 13.2763 31.5619 13.208L30.7462 14.2321C29.8626 15.3244 28.911 16.4167 28.1633 17.6456C28.0953 17.7822 28.0274 17.7822 27.8914 17.7822C27.3476 17.9187 26.7359 18.0552 26.1241 18.0552C26.3281 18.3283 26.6679 18.4649 26.9398 18.6014C27.0758 18.6697 27.3476 18.6697 27.4156 18.8745C27.4156 19.011 27.2117 19.2158 27.1437 19.3524C27.0078 19.6937 26.7359 19.8986 26.396 19.9668C25.8523 20.1034 25.3085 20.2399 24.6967 20.2399C24.6967 20.3765 24.7647 20.3765 24.8327 20.4447C25.1725 20.7178 25.5804 20.9226 25.9882 21.0592C26.1242 21.1274 26.1242 21.1957 26.0562 21.3322C25.9202 21.6736 25.6483 21.8101 25.3085 21.8784C24.4249 22.1515 23.5412 22.3563 22.6576 22.4246H22.5896C22.7935 22.6294 22.9975 22.7659 23.2014 22.9025C23.6092 23.1073 24.017 23.2438 24.4928 23.3804C24.5608 23.3804 24.6288 23.4486 24.5608 23.5169C24.2209 23.9948 23.8811 24.4727 23.4053 24.8141C23.0654 25.1554 22.6576 25.1554 22.1818 25.1554H20.6184C20.2106 25.1554 19.8028 25.1554 19.3949 25.2237C19.0551 25.292 18.7832 25.4285 18.5793 25.7016C17.8996 26.4526 17.4917 27.4084 17.0159 28.2959L16.812 28.7055C16.6761 29.2517 16.3362 29.5248 15.8604 29.7296C15.4526 29.7978 14.9768 30.0709 14.501 30.344Z" fill="white"/>
<path opacity="0.98" d="M0.788181 19.3657L20.0986 0.355469L21.8063 3.03297L3.54681 21.5747V21.6416L17.7341 36.167L16.6832 39.1792L0 21.7755L0.788181 19.3657Z" fill="white"/>
</svg>
