<svg width="46" height="44" viewBox="0 0 46 44" fill="none" xmlns="http://www.w3.org/2000/svg">
<path d="M44.6637 24.2525L25.3532 43.1958L23.6455 40.5183L41.905 22.0436V21.9766L27.7835 7.38426L28.8344 4.37207L45.5175 21.8428L44.6637 24.2525Z" fill="white"/>
<path fill-rule="evenodd" clip-rule="evenodd" d="M14.501 30.344C14.7049 29.6613 14.9768 29.0469 15.2487 28.4324C16.4042 26.0429 17.9675 23.9265 19.6668 21.9467C21.9099 19.4207 24.4249 17.1677 27.2797 15.3244C28.5032 14.5052 29.7946 13.8224 31.222 13.3446C31.29 13.2763 31.4259 13.2763 31.5619 13.208L30.7462 14.2321C29.8626 15.3244 28.911 16.4167 28.1633 17.6456C28.0953 17.7822 28.0274 17.7822 27.8914 17.7822C27.3476 17.9187 26.7359 18.0552 26.1241 18.0552C26.3281 18.3283 26.6679 18.4649 26.9398 18.6014C27.0758 18.6697 27.3476 18.6697 27.4156 18.8745C27.4156 19.011 27.2117 19.2158 27.1437 19.3524C27.0078 19.6937 26.7359 19.8986 26.396 19.9668C25.8523 20.1034 25.3085 20.2399 24.6967 20.2399C24.6967 20.3765 24.7647 20.3765 24.8327 20.4447C25.1725 20.7178 25.5804 20.9226 25.9882 21.0592C26.1242 21.1274 26.1242 21.1957 26.0562 21.3322C25.9202 21.6736 25.6483 21.8101 25.3085 21.8784C24.4249 22.1515 23.5412 22.3563 22.6576 22.4246H22.5896C22.7935 22.6294 22.9975 22.7659 23.2014 22.9025C23.6092 23.1073 24.017 23.2438 24.4928 23.3804C24.5608 23.3804 24.6288 23.4486 24.5608 23.5169C24.2209 23.9948 23.8811 24.4727 23.4053 24.8141C23.0654 25.1554 22.6576 25.1554 22.1818 25.1554H20.6184C20.2106 25.1554 19.8028 25.1554 19.3949 25.2237C19.0551 25.292 18.7832 25.4285 18.5793 25.7016C17.8996 26.4526 17.4917 27.4084 17.0159 28.2959L16.812 28.7055C16.6761 29.2517 16.3362 29.5248 15.8604 29.7296C15.4526 29.7978 14.9768 30.0709 14.501 30.344Z" fill="white"/>
<path opacity="0.98" d="M0.788181 19.3657L20.0986 0.355469L21.8063 3.03297L3.54681 21.5747V21.6416L17.7341 36.167L16.6832 39.1792L0 21.7755L0.788181 19.3657Z" fill="white"/>
</svg>
