<svg width="33" height="24" viewBox="0 0 33 24" fill="none" xmlns="http://www.w3.org/2000/svg">
<path d="M18.4857 12.37C18.4857 17.4731 14.4021 21.61 9.36492 21.61C4.32778 21.61 0.244141 17.4731 0.244141 12.37C0.244141 7.26684 4.32778 3.12996 9.36492 3.12996C14.4021 3.12996 18.4857 7.26684 18.4857 12.37Z" fill="#DDDDDD"/>
<path d="M28.4907 12.3686C28.4907 17.1724 26.4489 21.0664 23.9302 21.0664C21.4114 21.0664 19.3696 17.1721 19.3696 12.3686C19.3696 7.56511 21.4114 3.67081 23.9302 3.67081C26.4489 3.67081 28.4907 7.56511 28.4907 12.3686Z" fill="#DDDDDD"/>
<path d="M32.5834 12.3717C32.5834 16.6757 31.8654 20.1647 30.9794 20.1647C30.0935 20.1647 29.3755 16.6757 29.3755 12.3717C29.3755 8.06775 30.0935 4.57878 30.9794 4.57878C31.8654 4.57878 32.5834 8.06775 32.5834 12.3717Z" fill="#DDDDDD"/>
</svg>
