<svg width="582" height="339" viewBox="0 0 582 339" fill="none" xmlns="http://www.w3.org/2000/svg">
<path d="M497.323 330.437C521.645 300.967 553.282 222.233 506.506 134.531C455.956 39.7539 280.046 -23.0047 164.772 42.3047C49.498 107.614 73.1403 279.624 89.0002 330.436H497.323V330.437Z" fill="url(#paint0_linear_1_715)"/>
<path d="M40.1554 330.437C40.1554 330.437 23.8756 282.504 47.5001 250.397C83.033 202.106 161.689 248.888 215.732 207.276C269.775 165.664 370.029 112.405 468.324 162.923C566.619 213.442 550.341 303.709 544.467 330.437H40.1554Z" fill="#14316C"/>
<path d="M21.6508 56.6278C38.0533 57.101 95.7298 57.2495 111.463 56.3503C127.195 55.4511 125.553 47.7693 117.008 46.8603C108.464 45.9513 111.8 38.2517 101.18 40.4877C90.5606 42.7237 87.9973 42.7192 78.1577 31.8542C68.3182 20.9891 51.0947 19.8365 44.7568 31.8542C40.3346 40.2386 38.4286 44.1227 29.4091 41.2526C20.3896 38.3824 14.9357 44.6617 12.288 47.8129C9.93459 50.6145 1.41581 49.6682 1.00668 53.2899C0.596662 56.9115 19.1889 56.5576 21.6508 56.6278Z" fill="url(#paint1_linear_1_715)"/>
<path d="M414.712 330.436C414.712 330.436 417.737 318.688 384.21 299.009C350.683 279.331 342.459 236.449 289.004 237.036C235.548 237.623 218.807 310.464 232.317 330.436H414.712V330.436Z" fill="url(#paint2_linear_1_715)"/>
<g filter="url(#filter0_d_1_715)">
<path d="M169.422 330.436C169.422 330.436 172.4 284.619 154.68 254.804C132.968 218.269 139.088 184.11 167.545 190.785C189.405 195.912 189.292 287.492 189.131 330.436H169.422Z" fill="url(#paint3_linear_1_715)"/>
<path d="M156.603 218.268C156.603 218.268 186.207 259.029 179.56 330.436" stroke="#F9F9F9" stroke-width="0.99314" stroke-miterlimit="10" stroke-linecap="round"/>
<path d="M120.709 330.436C127.119 309.606 122.632 282.365 98.5956 263.456C74.5593 244.548 105.005 222.434 131.284 235.254C157.564 248.073 178.394 285.889 171.344 330.436H120.709V330.436Z" fill="url(#paint4_linear_1_715)"/>
<path d="M125.516 260.251C125.516 260.251 154.68 288.133 148.911 330.437" stroke="#F9F9F9" stroke-width="0.99314" stroke-miterlimit="10" stroke-linecap="round"/>
</g>
<g filter="url(#filter1_d_1_715)">
<path d="M197.626 172.76H181.762V330.436H197.626V172.76Z" fill="#423F63"/>
<path d="M146.118 112.43C136.56 112.43 128.812 120.179 128.812 129.737V172.761H146.118H235.291V112.43H146.118Z" fill="#407AFF"/>
<path d="M252.597 172.76H217.986V129.736C217.986 120.178 225.734 112.43 235.292 112.43C244.85 112.43 252.598 120.178 252.598 129.736L252.597 172.76Z" fill="#A1BEFF"/>
<path d="M256.042 172.76H221.431V129.736C221.431 120.178 229.178 112.43 238.737 112.43C248.294 112.43 256.043 120.178 256.043 129.736V172.76H256.042Z" fill="#163EA7"/>
<path d="M217.985 172.76H128.812V177.086H217.985V172.76Z" fill="#A1BEFF"/>
<path d="M252.597 172.76H217.985V177.086H252.597V172.76Z" fill="#163EA7"/>
<path d="M200.52 146.642C204.237 146.642 207.25 143.628 207.25 139.911C207.25 136.194 204.237 133.181 200.52 133.181C196.803 133.181 193.79 136.194 193.79 139.911C193.79 143.628 196.803 146.642 200.52 146.642Z" fill="#A9BCFF"/>
<path d="M204.772 105.774C204.772 103.872 203.229 102.328 201.326 102.328H188.421C186.518 102.328 184.976 103.871 184.976 105.774V111.229C184.976 113.131 186.518 114.674 188.421 114.674H196.265V139.911C196.265 142.26 198.17 144.165 200.519 144.165C202.867 144.165 204.772 142.26 204.772 139.911V105.774Z" fill="#B5D7FF"/>
</g>
<g filter="url(#filter2_d_1_715)">
<path d="M247.63 330.437C269.102 310.887 254.681 271.789 276.153 256.085C297.625 240.382 311.405 222.114 296.984 206.091C282.562 190.067 191.866 230.127 195.713 330.437H247.63Z" fill="url(#paint5_linear_1_715)"/>
<path d="M268.3 233.331C268.3 233.331 219.601 266.66 220.475 330.436" stroke="#F9F9F9" stroke-width="0.99314" stroke-miterlimit="10" stroke-linecap="round"/>
<path d="M212.057 330.437C209.173 289.095 219.429 245.509 239.939 215.384C260.449 185.259 239.297 172.76 216.223 195.835C193.551 218.508 181.852 274.352 189.103 330.437H212.057Z" fill="url(#paint6_linear_1_715)"/>
<path d="M221.672 218.269C221.672 218.269 190.265 266.982 195.713 330.437" stroke="#F9F9F9" stroke-width="0.99314" stroke-miterlimit="10" stroke-linecap="round"/>
</g>
<g filter="url(#filter3_d_1_715)">
<path d="M439.658 119.695H389.908V148.311V295.68H447.475V330.436H456.333V295.68H488.368V330.436H497.225V177.261C497.225 145.468 471.452 119.695 439.658 119.695Z" fill="#B5D7FF"/>
<path d="M488.367 295.68H479.51V330.436H488.367V295.68Z" fill="#A9BCFF"/>
<path d="M488.367 207.276H456.333V291.225H488.367V207.276Z" stroke="#4255FB" stroke-width="1.48979" stroke-miterlimit="10"/>
</g>
<path d="M397.724 295.68H388.866V330.436H397.724V295.68Z" fill="#B5D7FF"/>
<path d="M388.867 295.68H380.009V330.436H388.867V295.68Z" fill="#A9BCFF"/>
<path d="M389.908 119.695C358.114 119.695 332.341 145.469 332.341 177.262V330.437H347.975V295.681H431.842V330.437H447.476V177.262C447.475 145.468 421.701 119.695 389.908 119.695Z" fill="#A9BCFF"/>
<path d="M356.832 295.68H347.974V330.436H356.832V295.68Z" fill="#B5D7FF"/>
<path d="M431.841 192.392H347.974V202.822H431.841V192.392Z" fill="#2D3648"/>
<path d="M431.841 192.392H347.974V202.822H431.841V192.392Z" stroke="#4255FB" stroke-width="1.48979" stroke-miterlimit="10"/>
<path d="M431.841 291.225V207.276L347.973 207.276V291.225H431.841Z" stroke="#4255FB" stroke-width="1.48979" stroke-miterlimit="10"/>
<path d="M365.618 231.878L362.51 220.934H362.417C362.562 222.798 362.635 224.246 362.635 225.278V231.878H358.997V216.683H364.464L367.634 227.472H367.717L370.825 216.683H376.303V231.878H372.53V225.216C372.53 224.87 372.533 224.485 372.54 224.062C372.554 223.64 372.602 222.604 372.686 220.955H372.592L369.526 231.878H365.618ZM388.9 231.878L388.151 229.031H383.214L382.445 231.878H377.934L382.892 216.621H388.37L393.39 231.878H388.9ZM387.299 225.663L386.644 223.169C386.492 222.614 386.305 221.897 386.083 221.017C385.868 220.137 385.726 219.507 385.657 219.125C385.594 219.479 385.47 220.061 385.283 220.872C385.102 221.682 384.697 223.279 384.067 225.663H387.299ZM395.042 231.878V216.683H399.168V231.878H395.042ZM402.463 231.878V216.683H406.569V228.563H412.42V231.878H402.463Z" fill="#4255FB"/>
<path d="M329.374 46.952C335.97 23.9127 360.348 0.685699 401.761 1.00322C451.815 1.38744 456.685 81.4798 434.657 83.2426C412.629 85.0045 422.143 14.2208 478.919 22.1507C535.694 30.0807 545.974 117.118 535.106 150.698C524.239 184.279 487.819 231.86 487.819 231.86" stroke="#4B57B5" stroke-width="1.41908" stroke-miterlimit="10" stroke-linecap="round" stroke-linejoin="round" stroke-dasharray="4.26 8.51 4.26 8.51 4.26 8.51"/>
<g filter="url(#filter4_d_1_715)">
<path d="M309.896 40.1459L290.629 95.2231L325.745 107.508L345.012 52.4304L309.896 40.1459Z" fill="#EDF2FE"/>
<path d="M290.625 95.215L321.189 75.3918L309.891 40.1373L290.625 95.215Z" fill="#DDE7FF"/>
<path d="M290.625 95.215L317.817 73.8184L309.891 40.1373L290.625 95.215Z" fill="#EDF2FE"/>
</g>
<path d="M496.782 243.671C510.615 255.107 538.016 275.025 580.418 270.85" stroke="#4B57B5" stroke-width="1.41908" stroke-miterlimit="10" stroke-linecap="round" stroke-linejoin="round" stroke-dasharray="4.26 8.51 4.26 8.51 4.26 8.51"/>
<g filter="url(#filter5_d_1_715)">
<path d="M507.381 228.12L459.178 195.239L438.214 225.973L486.417 258.853L507.381 228.12Z" fill="#EDF2FE"/>
<path d="M459.181 195.246L470.406 229.903L507.385 228.127L459.181 195.246Z" fill="#DDE7FF"/>
<path d="M459.181 195.246L472.8 227.053L507.385 228.127L459.181 195.246Z" fill="#EDF2FE"/>
</g>
<g filter="url(#filter6_d_1_715)">
<path d="M157.521 92.431L108.203 123.614L128.084 155.058L177.402 123.875L157.521 92.431Z" fill="#EDF2FE"/>
<path d="M108.207 123.624L144.472 127.085L157.528 92.4427L108.207 123.624Z" fill="#DDE7FF"/>
<path d="M108.207 123.624L142.808 123.756L157.528 92.4427L108.207 123.624Z" fill="#EDF2FE"/>
</g>
<path d="M118.535 139.958C117.899 140.343 117.272 140.741 116.654 141.151" stroke="#4B57B5" stroke-width="1.41908" stroke-linecap="round" stroke-linejoin="round"/>
<path d="M108.669 147.436C102.436 153.084 96.9433 159.695 91.2021 165.896" stroke="#4B57B5" stroke-width="1.41908" stroke-linecap="round" stroke-linejoin="round" stroke-dasharray="4.86 9.72 4.86 9.72"/>
<path d="M87.6965 169.579C75.4298 182.052 61.2179 191.531 36.0929 185.534C24.8472 182.85 15.8063 179.825 7.92969 177.168" stroke="#4B57B5" stroke-width="1.41908" stroke-linecap="round" stroke-linejoin="round" stroke-dasharray="4.86 9.72 4.86 9.72 4.86 9.72"/>
<path d="M3.11373 175.549C2.40131 175.313 1.6969 175.08 1.00049 174.853" stroke="#4B57B5" stroke-width="1.41908" stroke-linecap="round" stroke-linejoin="round"/>
<defs>
<filter id="filter0_d_1_715" x="85.8633" y="189.944" width="107.294" height="148.989" filterUnits="userSpaceOnUse" color-interpolation-filters="sRGB">
<feFlood flood-opacity="0" result="BackgroundImageFix"/>
<feColorMatrix in="SourceAlpha" type="matrix" values="0 0 0 0 0 0 0 0 0 0 0 0 0 0 0 0 0 0 127 0" result="hardAlpha"/>
<feOffset dy="4"/>
<feGaussianBlur stdDeviation="2"/>
<feComposite in2="hardAlpha" operator="out"/>
<feColorMatrix type="matrix" values="0 0 0 0 0 0 0 0 0 0 0 0 0 0 0 0 0 0 0.25 0"/>
<feBlend mode="normal" in2="BackgroundImageFix" result="effect1_dropShadow_1_715"/>
<feBlend mode="normal" in="SourceGraphic" in2="effect1_dropShadow_1_715" result="shape"/>
</filter>
<filter id="filter1_d_1_715" x="124.812" y="102.328" width="135.231" height="236.107" filterUnits="userSpaceOnUse" color-interpolation-filters="sRGB">
<feFlood flood-opacity="0" result="BackgroundImageFix"/>
<feColorMatrix in="SourceAlpha" type="matrix" values="0 0 0 0 0 0 0 0 0 0 0 0 0 0 0 0 0 0 127 0" result="hardAlpha"/>
<feOffset dy="4"/>
<feGaussianBlur stdDeviation="2"/>
<feComposite in2="hardAlpha" operator="out"/>
<feColorMatrix type="matrix" values="0 0 0 0 0 0 0 0 0 0 0 0 0 0 0 0 0 0 0.25 0"/>
<feBlend mode="normal" in2="BackgroundImageFix" result="effect1_dropShadow_1_715"/>
<feBlend mode="normal" in="SourceGraphic" in2="effect1_dropShadow_1_715" result="shape"/>
</filter>
<filter id="filter2_d_1_715" x="182.962" y="183.907" width="123.955" height="155.027" filterUnits="userSpaceOnUse" color-interpolation-filters="sRGB">
<feFlood flood-opacity="0" result="BackgroundImageFix"/>
<feColorMatrix in="SourceAlpha" type="matrix" values="0 0 0 0 0 0 0 0 0 0 0 0 0 0 0 0 0 0 127 0" result="hardAlpha"/>
<feOffset dy="4"/>
<feGaussianBlur stdDeviation="2"/>
<feComposite in2="hardAlpha" operator="out"/>
<feColorMatrix type="matrix" values="0 0 0 0 0 0 0 0 0 0 0 0 0 0 0 0 0 0 0.25 0"/>
<feBlend mode="normal" in2="BackgroundImageFix" result="effect1_dropShadow_1_715"/>
<feBlend mode="normal" in="SourceGraphic" in2="effect1_dropShadow_1_715" result="shape"/>
</filter>
<filter id="filter3_d_1_715" x="385.908" y="119.695" width="115.317" height="218.741" filterUnits="userSpaceOnUse" color-interpolation-filters="sRGB">
<feFlood flood-opacity="0" result="BackgroundImageFix"/>
<feColorMatrix in="SourceAlpha" type="matrix" values="0 0 0 0 0 0 0 0 0 0 0 0 0 0 0 0 0 0 127 0" result="hardAlpha"/>
<feOffset dy="4"/>
<feGaussianBlur stdDeviation="2"/>
<feComposite in2="hardAlpha" operator="out"/>
<feColorMatrix type="matrix" values="0 0 0 0 0 0 0 0 0 0 0 0 0 0 0 0 0 0 0.25 0"/>
<feBlend mode="normal" in2="BackgroundImageFix" result="effect1_dropShadow_1_715"/>
<feBlend mode="normal" in="SourceGraphic" in2="effect1_dropShadow_1_715" result="shape"/>
</filter>
<filter id="filter4_d_1_715" x="286.625" y="40.1373" width="62.3872" height="75.3704" filterUnits="userSpaceOnUse" color-interpolation-filters="sRGB">
<feFlood flood-opacity="0" result="BackgroundImageFix"/>
<feColorMatrix in="SourceAlpha" type="matrix" values="0 0 0 0 0 0 0 0 0 0 0 0 0 0 0 0 0 0 127 0" result="hardAlpha"/>
<feOffset dy="4"/>
<feGaussianBlur stdDeviation="2"/>
<feComposite in2="hardAlpha" operator="out"/>
<feColorMatrix type="matrix" values="0 0 0 0 0 0 0 0 0 0 0 0 0 0 0 0 0 0 0.25 0"/>
<feBlend mode="normal" in2="BackgroundImageFix" result="effect1_dropShadow_1_715"/>
<feBlend mode="normal" in="SourceGraphic" in2="effect1_dropShadow_1_715" result="shape"/>
</filter>
<filter id="filter5_d_1_715" x="434.214" y="195.239" width="77.1709" height="71.6141" filterUnits="userSpaceOnUse" color-interpolation-filters="sRGB">
<feFlood flood-opacity="0" result="BackgroundImageFix"/>
<feColorMatrix in="SourceAlpha" type="matrix" values="0 0 0 0 0 0 0 0 0 0 0 0 0 0 0 0 0 0 127 0" result="hardAlpha"/>
<feOffset dy="4"/>
<feGaussianBlur stdDeviation="2"/>
<feComposite in2="hardAlpha" operator="out"/>
<feColorMatrix type="matrix" values="0 0 0 0 0 0 0 0 0 0 0 0 0 0 0 0 0 0 0.25 0"/>
<feBlend mode="normal" in2="BackgroundImageFix" result="effect1_dropShadow_1_715"/>
<feBlend mode="normal" in="SourceGraphic" in2="effect1_dropShadow_1_715" result="shape"/>
</filter>
<filter id="filter6_d_1_715" x="104.203" y="92.431" width="77.1992" height="70.6267" filterUnits="userSpaceOnUse" color-interpolation-filters="sRGB">
<feFlood flood-opacity="0" result="BackgroundImageFix"/>
<feColorMatrix in="SourceAlpha" type="matrix" values="0 0 0 0 0 0 0 0 0 0 0 0 0 0 0 0 0 0 127 0" result="hardAlpha"/>
<feOffset dy="4"/>
<feGaussianBlur stdDeviation="2"/>
<feComposite in2="hardAlpha" operator="out"/>
<feColorMatrix type="matrix" values="0 0 0 0 0 0 0 0 0 0 0 0 0 0 0 0 0 0 0.25 0"/>
<feBlend mode="normal" in2="BackgroundImageFix" result="effect1_dropShadow_1_715"/>
<feBlend mode="normal" in="SourceGraphic" in2="effect1_dropShadow_1_715" result="shape"/>
</filter>
<linearGradient id="paint0_linear_1_715" x1="75.5931" y1="172.943" x2="530.57" y2="172.943" gradientUnits="userSpaceOnUse">
<stop offset="1" stop-color="#C2D7FF"/>
</linearGradient>
<linearGradient id="paint1_linear_1_715" x1="0.999743" y1="40.137" x2="123.398" y2="40.137" gradientUnits="userSpaceOnUse">
<stop offset="0.004" stop-color="#D8E3FF"/>
<stop offset="1" stop-color="#D2DFFF"/>
</linearGradient>
<linearGradient id="paint2_linear_1_715" x1="281.98" y1="362.182" x2="353.515" y2="262.28" gradientUnits="userSpaceOnUse">
<stop stop-color="#B6CCBD"/>
<stop offset="1" stop-color="#D1E7D9"/>
</linearGradient>
<linearGradient id="paint3_linear_1_715" x1="161.029" y1="210.264" x2="179.714" y2="331.299" gradientUnits="userSpaceOnUse">
<stop stop-color="#60BEC8"/>
<stop offset="1" stop-color="#4BA5AA"/>
</linearGradient>
<linearGradient id="paint4_linear_1_715" x1="150.867" y1="330.249" x2="123.459" y2="250.491" gradientUnits="userSpaceOnUse">
<stop stop-color="#B6CCBD"/>
<stop offset="1" stop-color="#D1E7D9"/>
</linearGradient>
<linearGradient id="paint5_linear_1_715" x1="269.821" y1="224.311" x2="213.361" y2="325.721" gradientUnits="userSpaceOnUse">
<stop stop-color="#60BEC8"/>
<stop offset="1" stop-color="#4BA5AA"/>
</linearGradient>
<linearGradient id="paint6_linear_1_715" x1="194.026" y1="334.296" x2="221.16" y2="217.813" gradientUnits="userSpaceOnUse">
<stop stop-color="#B6CCBD"/>
<stop offset="1" stop-color="#D1E7D9"/>
</linearGradient>
</defs>
</svg>
