<svg width="32" height="27" viewBox="0 0 32 27" fill="none" xmlns="http://www.w3.org/2000/svg">
<path d="M29.2852 22.5359C27.0411 24.9695 23.6454 26.2031 19.194 26.2031H17.5945V21.6927L18.8805 21.4351C21.0718 20.9967 22.5961 20.1343 23.4118 18.8687C23.8375 18.1869 24.0789 17.4063 24.1124 16.6031H19.194C18.7698 16.6031 18.3629 16.4346 18.063 16.1345C17.763 15.8344 17.5945 15.4275 17.5945 15.0031V3.80313C17.5945 2.03832 19.0292 0.603125 20.7935 0.603125H30.3904C30.8147 0.603125 31.2215 0.771694 31.5215 1.07175C31.8214 1.37181 31.9899 1.77878 31.9899 2.20312V10.2031L31.9851 14.8735C31.9995 15.0511 32.3034 19.2591 29.2852 22.5359ZM3.19899 0.603125H12.796C13.2202 0.603125 13.627 0.771694 13.927 1.07175C14.227 1.37181 14.3955 1.77878 14.3955 2.20312V10.2031L14.3907 14.8735C14.4051 15.0511 14.709 19.2591 11.6907 22.5359C9.44663 24.9695 6.0509 26.2031 1.5995 26.2031H0V21.6927L1.286 21.4351C3.47731 20.9967 5.00163 20.1343 5.81737 18.8687C6.24301 18.1869 6.48441 17.4063 6.51795 16.6031H1.5995C1.17528 16.6031 0.768444 16.4346 0.468481 16.1345C0.168516 15.8344 0 15.4275 0 15.0031V3.80313C0 2.03832 1.43475 0.603125 3.19899 0.603125Z" fill="#204ECF"/>
</svg>
