<svg width="33" height="27" viewBox="0 0 33 27" fill="none" xmlns="http://www.w3.org/2000/svg">
<path d="M2.915 4.26681C5.1591 1.83321 8.55483 0.599609 13.0062 0.599609H14.6057V5.11001L13.3197 5.36761C11.1284 5.80601 9.6041 6.66841 8.78836 7.93401C8.36272 8.61582 8.12132 9.39648 8.08778 10.1996H13.0062C13.4304 10.1996 13.8373 10.3682 14.1372 10.6682C14.4372 10.9683 14.6057 11.3753 14.6057 11.7996V22.9996C14.6057 24.7644 13.171 26.1996 11.4067 26.1996H1.80975C1.38554 26.1996 0.978698 26.031 0.678734 25.731C0.378771 25.4309 0.210253 25.024 0.210253 24.5996V16.5996L0.215051 11.9292C0.200656 11.7516 -0.103249 7.54361 2.915 4.26681ZM29.0012 26.1996H19.4042C18.98 26.1996 18.5732 26.031 18.2732 25.731C17.9732 25.4309 17.8047 25.024 17.8047 24.5996V16.5996L17.8095 11.9292C17.7951 11.7516 17.4912 7.54361 20.5095 4.26681C22.7536 1.83321 26.1493 0.599609 30.6007 0.599609H32.2002V5.11001L30.9142 5.36761C28.7229 5.80601 27.1986 6.66841 26.3828 7.93401C25.9572 8.61582 25.7158 9.39648 25.6822 10.1996H30.6007C31.0249 10.1996 31.4318 10.3682 31.7317 10.6682C32.0317 10.9683 32.2002 11.3753 32.2002 11.7996V22.9996C32.2002 24.7644 30.7654 26.1996 29.0012 26.1996Z" fill="white"/>
</svg>
