<svg width="27" height="24" viewBox="0 0 27 24" fill="none" xmlns="http://www.w3.org/2000/svg">
<path fill-rule="evenodd" clip-rule="evenodd" d="M26.2811 12.1412C26.2811 10.3115 24.9047 8.82489 23.2107 8.82489C22.4696 8.82489 21.8343 9.0536 21.305 9.51103C19.3992 8.25311 17.07 7.45261 14.529 7.33826L15.7995 2.87836L19.3992 3.79321C19.5051 5.16549 20.5638 6.30905 21.9402 6.30905C23.3166 6.30905 24.4812 5.05113 24.4812 3.5645C24.4812 2.07787 23.3166 0.819946 21.9402 0.819946C20.9873 0.819946 20.1403 1.39173 19.7168 2.30658L15.4818 1.27737C15.1642 1.16302 14.7407 1.39173 14.6348 1.7348L13.0467 7.33826C10.3998 7.45261 7.75297 8.13875 5.84722 9.51103C5.31784 9.0536 4.68259 8.82489 3.94147 8.82489C2.24747 8.82489 0.871094 10.3115 0.871094 12.1412C0.871094 13.2848 1.40047 14.314 2.14159 14.8858C2.14159 15.1145 2.14159 15.4576 2.14159 15.6863C2.14159 17.9734 3.41209 20.0318 5.63547 21.6328C7.75297 23.1195 10.6116 23.9199 13.5761 23.9199C16.5406 23.9199 19.3992 23.1195 21.5167 21.6328C23.7401 20.0318 25.0106 17.9734 25.0106 15.6863C25.0106 15.4576 25.0106 15.2289 25.0106 15.0002C25.7517 14.314 26.2811 13.2848 26.2811 12.1412ZM22.0461 2.30658C22.6813 2.30658 23.2107 2.87836 23.2107 3.5645C23.2107 4.25064 22.6813 4.82242 22.0461 4.82242C21.4108 4.82242 20.8815 4.25064 20.8815 3.5645C20.8815 2.87836 21.4108 2.30658 22.0461 2.30658ZM8.07059 14.1997C8.07059 13.1705 8.91759 12.37 9.76459 12.37C10.7175 12.37 11.4586 13.2848 11.4586 14.1997C11.4586 15.1145 10.7175 16.0294 9.76459 16.0294C8.91759 16.0294 8.07059 15.2289 8.07059 14.1997ZM17.8111 19.5744C16.9641 20.4893 15.5877 20.9467 13.682 20.9467C11.7762 20.9467 10.3998 20.4893 9.55284 19.5744C9.23522 19.2313 9.23522 18.7739 9.55284 18.5452C9.87047 18.2021 10.294 18.2021 10.5057 18.5452C11.141 19.2313 12.1997 19.5744 13.682 19.5744C15.1642 19.5744 16.223 19.2313 16.8582 18.5452C17.1758 18.2021 17.5993 18.2021 17.8111 18.5452C18.0228 18.8883 18.0228 19.3457 17.8111 19.5744ZM17.3876 16.0294C16.4347 16.0294 15.5877 15.2289 15.5877 14.1997C15.5877 13.1705 16.4347 12.37 17.3876 12.37C18.3405 12.37 19.0816 13.2848 19.0816 14.1997C19.0816 15.1145 18.3405 16.0294 17.3876 16.0294Z" fill="#DDDDDD"/>
</svg>
