<svg width="171" height="29" viewBox="0 0 171 29" fill="none" xmlns="http://www.w3.org/2000/svg">
<path d="M13.6781 4.68328C14.1571 3.20918 16.2425 3.20918 16.7215 4.68328L18.0736 8.84458C18.2878 9.50382 18.9021 9.95016 19.5953 9.95016H23.9707C25.5207 9.95016 26.1651 11.9335 24.9112 12.8446L21.3714 15.4164C20.8106 15.8238 20.5759 16.546 20.7901 17.2053L22.1422 21.3666C22.6212 22.8407 20.934 24.0665 19.6801 23.1554L16.1403 20.5836C15.5795 20.1762 14.8201 20.1762 14.2593 20.5836L10.7195 23.1554C9.46559 24.0665 7.77842 22.8407 8.25739 21.3666L9.60948 17.2053C9.82368 16.546 9.58902 15.8238 9.02824 15.4164L5.48843 12.8446C4.23448 11.9335 4.87893 9.95016 6.42888 9.95016H10.8043C11.4975 9.95016 12.1118 9.50382 12.326 8.84458L13.6781 4.68328Z" fill="url(#paint0_linear_1_701)"/>
<path d="M48.8783 4.68328C49.3573 3.20918 51.4427 3.20918 51.9217 4.68328L53.2738 8.84458C53.488 9.50382 54.1023 9.95016 54.7955 9.95016H59.1709C60.7209 9.95016 61.3653 11.9335 60.1114 12.8446L56.5716 15.4164C56.0108 15.8238 55.7761 16.546 55.9903 17.2053L57.3424 21.3666C57.8214 22.8407 56.1342 24.0665 54.8803 23.1554L51.3405 20.5836C50.7797 20.1762 50.0203 20.1762 49.4595 20.5836L45.9197 23.1554C44.6658 24.0665 42.9786 22.8407 43.4576 21.3666L44.8097 17.2053C45.0239 16.546 44.7892 15.8238 44.2284 15.4164L40.6886 12.8446C39.4347 11.9335 40.0791 9.95016 41.6291 9.95016H46.0045C46.6977 9.95016 47.312 9.50382 47.5262 8.84458L48.8783 4.68328Z" fill="url(#paint1_linear_1_701)"/>
<path d="M84.0775 4.68328C84.5565 3.20918 86.6419 3.20918 87.1209 4.68328L88.473 8.84458C88.6872 9.50382 89.3015 9.95016 89.9947 9.95016H94.3701C95.9201 9.95016 96.5645 11.9335 95.3106 12.8446L91.7708 15.4164C91.21 15.8238 90.9753 16.546 91.1895 17.2053L92.5416 21.3666C93.0206 22.8407 91.3334 24.0665 90.0795 23.1554L86.5397 20.5836C85.9789 20.1762 85.2195 20.1762 84.6588 20.5836L81.1189 23.1554C79.865 24.0665 78.1778 22.8407 78.6568 21.3666L80.0089 17.2053C80.2231 16.546 79.9884 15.8238 79.4277 15.4164L75.8878 12.8446C74.6339 11.9335 75.2783 9.95016 76.8283 9.95016H81.2037C81.8969 9.95016 82.5112 9.50382 82.7254 8.84458L84.0775 4.68328Z" fill="url(#paint2_linear_1_701)"/>
<path d="M119.278 4.68328C119.757 3.20918 121.842 3.20918 122.321 4.68328L123.673 8.84458C123.887 9.50382 124.502 9.95016 125.195 9.95016H129.57C131.12 9.95016 131.765 11.9335 130.511 12.8446L126.971 15.4164C126.41 15.8238 126.176 16.546 126.39 17.2053L127.742 21.3666C128.221 22.8407 126.534 24.0665 125.28 23.1554L121.74 20.5836C121.179 20.1762 120.42 20.1762 119.859 20.5836L116.319 23.1554C115.065 24.0665 113.378 22.8407 113.857 21.3666L115.209 17.2053C115.423 16.546 115.189 15.8238 114.628 15.4164L111.088 12.8446C109.834 11.9335 110.479 9.95016 112.028 9.95016H116.404C117.097 9.95016 117.711 9.50382 117.926 8.84458L119.278 4.68328Z" fill="url(#paint3_linear_1_701)"/>
<path d="M154.478 4.68328C154.957 3.20918 157.042 3.20918 157.521 4.68328L158.873 8.84458C159.088 9.50382 159.702 9.95016 160.395 9.95016H164.771C166.32 9.95016 166.965 11.9335 165.711 12.8446L162.171 15.4164C161.61 15.8238 161.376 16.546 161.59 17.2053L162.942 21.3666C163.421 22.8407 161.734 24.0665 160.48 23.1554L156.94 20.5836C156.379 20.1762 155.62 20.1762 155.059 20.5836L151.519 23.1554C150.265 24.0665 148.578 22.8407 149.057 21.3666L150.409 17.2053C150.623 16.546 150.389 15.8238 149.828 15.4164L146.288 12.8446C145.034 11.9335 145.679 9.95016 147.229 9.95016H151.604C152.297 9.95016 152.912 9.50382 153.126 8.84458L154.478 4.68328Z" fill="url(#paint4_linear_1_701)"/>
<defs>
<linearGradient id="paint0_linear_1_701" x1="15.1998" y1="0" x2="15.1998" y2="28.8" gradientUnits="userSpaceOnUse">
<stop stop-color="#FFCE50"/>
<stop offset="1" stop-color="#FE9D0B"/>
</linearGradient>
<linearGradient id="paint1_linear_1_701" x1="50.4" y1="0" x2="50.4" y2="28.8" gradientUnits="userSpaceOnUse">
<stop stop-color="#FFCE50"/>
<stop offset="1" stop-color="#FE9D0B"/>
</linearGradient>
<linearGradient id="paint2_linear_1_701" x1="85.5992" y1="0" x2="85.5992" y2="28.8" gradientUnits="userSpaceOnUse">
<stop stop-color="#FFCE50"/>
<stop offset="1" stop-color="#FE9D0B"/>
</linearGradient>
<linearGradient id="paint3_linear_1_701" x1="120.799" y1="0" x2="120.799" y2="28.8" gradientUnits="userSpaceOnUse">
<stop stop-color="#FFCE50"/>
<stop offset="1" stop-color="#FE9D0B"/>
</linearGradient>
<linearGradient id="paint4_linear_1_701" x1="156" y1="0" x2="156" y2="28.8" gradientUnits="userSpaceOnUse">
<stop stop-color="#FFCE50"/>
<stop offset="1" stop-color="#FE9D0B"/>
</linearGradient>
</defs>
</svg>
