<svg width="24" height="20" viewBox="0 0 24 20" fill="none" xmlns="http://www.w3.org/2000/svg">
<path fill-rule="evenodd" clip-rule="evenodd" d="M23.0535 1.32801C23.0348 1.24525 22.9939 1.16875 22.9349 1.10626C22.8759 1.04378 22.8009 0.997523 22.7176 0.972185C22.4141 0.913861 22.1001 0.935463 21.8081 1.03476C21.8081 1.03476 1.56898 8.09438 0.41309 8.87609C0.164781 9.0442 0.0810488 9.14226 0.0396639 9.25714C-0.160523 9.8175 0.462175 10.0585 0.462175 10.0585L5.67859 11.7078C5.76679 11.7231 5.85749 11.718 5.94326 11.6928C7.12899 10.9653 17.8775 4.37638 18.5021 4.15504C18.5983 4.12702 18.6725 4.15504 18.6532 4.22508C18.4049 5.0703 9.11643 13.0769 9.06542 13.1255C9.04057 13.1452 9.02121 13.1707 9.0091 13.1996C8.99701 13.2284 8.99254 13.2598 8.99612 13.2908L8.50913 18.2332C8.50913 18.2332 8.30509 19.7714 9.8902 18.2332C11.0143 17.1414 12.0932 16.2374 12.6322 15.7975C14.4262 16.9995 16.3559 18.3285 17.1884 19.0242C17.3284 19.1557 17.4943 19.2586 17.6762 19.3265C17.8581 19.3943 18.0524 19.4259 18.2471 19.4193C18.4869 19.3909 18.7122 19.2924 18.8928 19.1367C19.0736 18.981 19.2011 18.7756 19.2586 18.5479C19.2586 18.5479 22.9447 4.14383 23.0679 2.21432C23.0804 2.02753 23.0968 1.90425 23.0987 1.77444C23.1048 1.62432 23.0895 1.47412 23.0535 1.32801Z" fill="#DDDDDD"/>
</svg>
