<svg width="25" height="24" viewBox="0 0 25 24" fill="none" xmlns="http://www.w3.org/2000/svg">
<path d="M22.3551 21.5634L14.6162 10.5741L13.7412 9.33132L8.20341 1.47179L7.74451 0.819977H0.942871L2.60147 3.17633L9.96315 13.6297L10.8382 14.8706L16.7532 23.2699L17.212 23.9197H24.0156L22.3551 21.5634ZM18.019 22.4147L11.8745 13.6886L10.9995 12.4459L3.86926 2.32308H6.93566L12.7029 10.5114L13.5779 11.7542L21.0873 22.4166H18.019V22.4147Z" fill="#DDDDDD"/>
<path d="M11.0004 12.448L11.8754 13.6907L10.839 14.8708L2.87845 23.9199H0.916504L9.96403 13.63L11.0004 12.448Z" fill="#DDDDDD"/>
<path d="M23.1964 0.819977L14.6175 10.5741L13.5791 11.7542L12.7041 10.5114L13.7424 9.33132L19.5544 2.72027L21.2344 0.819977H23.1964Z" fill="#DDDDDD"/>
</svg>
