<svg width="31" height="24" viewBox="0 0 31 24" fill="none" xmlns="http://www.w3.org/2000/svg">
<path fill-rule="evenodd" clip-rule="evenodd" d="M30.311 5.76994C30.311 5.76994 30.0607 3.43244 29.0597 2.46994C27.9336 1.09495 26.6824 1.09495 26.0567 1.09495C21.8025 0.819946 15.5463 0.819946 15.5463 0.819946C15.5463 0.819946 9.29 0.819946 5.03575 1.09495C4.41013 1.23245 3.15887 1.23245 2.03275 2.46994C1.15688 3.43244 0.7815 5.76994 0.7815 5.76994C0.7815 5.76994 0.53125 8.38243 0.53125 11.1325V13.6075C0.53125 16.22 0.7815 18.97 0.7815 18.97C0.7815 18.97 1.03175 21.3075 2.03275 22.2699C3.15887 23.6449 4.66038 23.5074 5.286 23.6449C7.66337 23.9199 15.5463 23.9199 15.5463 23.9199C15.5463 23.9199 21.8025 23.9199 26.0567 23.5074C26.6824 23.3699 27.9336 23.3699 29.0597 22.1325C29.9356 21.17 30.311 18.8325 30.311 18.8325C30.311 18.8325 30.5613 16.22 30.5613 13.47V10.995C30.5613 8.38243 30.311 5.76994 30.311 5.76994ZM12.4181 16.6325V7.41993L20.5513 12.095L12.4181 16.6325Z" fill="#DDDDDD"/>
</svg>
